<svg width="23" height="25" viewBox="0 0 23 25" fill="none" xmlns="http://www.w3.org/2000/svg">
<path d="M11.3207 24.8202V22.6302H20.2563C20.359 22.6302 20.453 22.5834 20.5383 22.4897C20.6239 22.3962 20.6667 22.2933 20.6667 22.1809V2.63934C20.6667 2.52692 20.6239 2.42399 20.5383 2.33055C20.453 2.23686 20.359 2.19002 20.2563 2.19002H11.3207V0H20.2563C20.9299 0 21.5 0.255502 21.9667 0.766507C22.4333 1.27751 22.6667 1.90179 22.6667 2.63934V22.1809C22.6667 22.9184 22.4333 23.5427 21.9667 24.0537C21.5 24.5647 20.9299 24.8202 20.2563 24.8202H11.3207ZM9.513 18.6433L8.12833 17.0595L11.3743 13.5051H0V11.3151H11.3743L8.12833 7.7607L9.513 6.17695L15.205 12.4101L9.513 18.6433Z" fill="white"/>
</svg>
