<svg width="152" height="25" viewBox="0 0 152 25" fill="none" xmlns="http://www.w3.org/2000/svg">
<path d="M15.1118 15.3422H25.5955V23.547H0V20.927L10.9875 8.72317H0.472242V1.24231H25.5641V3.86233L15.1118 15.3422ZM40.8018 23.9607C32.3014 23.9607 27.8623 18.9275 27.8623 12.4464V12.205C27.8623 5.72393 32.3014 0.65625 40.8018 0.65625C49.3021 0.65625 53.206 5.68946 53.206 11.7914V13.8943H38.7868V14.2735C38.7868 16.3075 40.2665 17.0314 42.6278 17.0314C45.1149 17.0314 47.0354 16.5488 49.1447 15.8938L52.0411 20.4443C49.3336 22.5128 45.9649 23.9607 40.8018 23.9607ZM42.8796 10.7571C42.8796 9.17133 42.3759 7.4821 40.8018 7.4821C39.2276 7.4821 38.7868 9.20581 38.7868 10.7571V10.895H42.8796V10.7571ZM72.3475 23.5815L68.79 17.1348L66.4917 19.7549V23.5815H55.8191V1.24231H66.4917V9.79186L72.2846 1.24231H83.5869L75.9681 10.7916L83.6499 23.5815H72.3475ZM99.4228 24.4088C89.8205 24.4088 86.0111 19.8238 86.0111 13.9977V1.24231H96.6523V13.1358C96.6523 15.9282 97.4079 17.1348 99.958 17.1348C102.508 17.1348 103.201 15.9282 103.201 13.1358V1.24231H112.677V13.9977C112.677 19.8238 109.057 24.4088 99.4228 24.4088ZM132.291 23.5815C131.063 23.5815 129.835 22.0991 129.835 20.1341V18.1001C129.835 16.5143 129.52 15.7214 127.978 15.7214H126.215V23.6159H115.573V1.24231H131.945C137.486 1.24231 140.823 3.89681 140.823 7.4821V7.79237C140.823 9.92976 138.965 12.1361 135.943 12.7911C139.5 13.1703 140.476 15.4456 140.476 18.0312V19.8927C140.476 21.3062 140.791 22.3404 141.578 23.2712V23.6159H132.291V23.5815ZM130.056 9.58502C130.056 8.4129 129.457 7.96474 127.883 7.96474H126.183V11.5156H127.883C129.489 11.5156 130.056 10.7916 130.056 9.68844V9.58502Z" fill="#143039"/>
<path d="M147.56 24.7178C150.012 24.7178 151.999 22.5415 151.999 19.8569C151.999 17.1724 150.012 14.9961 147.56 14.9961C145.109 14.9961 143.121 17.1724 143.121 19.8569C143.121 22.5415 145.109 24.7178 147.56 24.7178Z" fill="#143039"/>
</svg>
