<svg width="22" height="22" viewBox="0 0 22 22" fill="none" xmlns="http://www.w3.org/2000/svg">
<path d="M9.9 17.6C12.0267 17.6 13.8417 16.8529 15.345 15.3588C16.8483 13.8646 17.6 12.045 17.6 9.9C17.6 7.77333 16.8483 5.95833 15.345 4.455C13.8417 2.95167 12.0267 2.2 9.9 2.2C7.755 2.2 5.93542 2.95167 4.44125 4.455C2.94708 5.95833 2.2 7.77333 2.2 9.9C2.2 12.045 2.94708 13.8646 4.44125 15.3588C5.93542 16.8529 7.755 17.6 9.9 17.6ZM9.9 19.8C8.525 19.8 7.23708 19.5388 6.03625 19.0163C4.83542 18.4938 3.79042 17.7879 2.90125 16.8988C2.01208 16.0096 1.30625 14.9646 0.78375 13.7638C0.26125 12.5629 0 11.275 0 9.9C0 8.54333 0.26125 7.26458 0.78375 6.06375C1.30625 4.86292 2.01208 3.81333 2.90125 2.915C3.79042 2.01667 4.83542 1.30625 6.03625 0.78375C7.23708 0.26125 8.525 0 9.9 0C11.2567 0 12.5354 0.26125 13.7363 0.78375C14.9371 1.30625 15.9867 2.01667 16.885 2.915C17.7833 3.81333 18.4938 4.86292 19.0163 6.06375C19.5388 7.26458 19.8 8.54333 19.8 9.9C19.8 11.0733 19.6075 12.1825 19.2225 13.2275C18.8375 14.2725 18.3058 15.2258 17.6275 16.0875L22 20.46L20.4325 22L16.06 17.655C15.1983 18.3333 14.245 18.8604 13.2 19.2363C12.155 19.6121 11.055 19.8 9.9 19.8Z" fill="#143039"/>
</svg>
