<svg width="28" height="31" viewBox="0 0 28 31" fill="none" xmlns="http://www.w3.org/2000/svg">
<path d="M14 31L12.6 26.35H2.8C2.03 26.35 1.37083 26.0465 0.8225 25.4394C0.274167 24.8323 0 24.1025 0 23.25V3.1C0 2.2475 0.274167 1.51771 0.8225 0.910625C1.37083 0.303542 2.03 0 2.8 0H11.2L12.425 4.65H25.2C26.0167 4.65 26.6875 4.94062 27.2125 5.52187C27.7375 6.10312 28 6.84583 28 7.75V27.9C28 28.7525 27.7375 29.4823 27.2125 30.0894C26.6875 30.6965 26.0167 31 25.2 31H14ZM7.21 19.53C8.82 19.53 10.1442 18.9552 11.1825 17.8056C12.2208 16.656 12.74 15.1642 12.74 13.33C12.74 13.1233 12.7342 12.936 12.7225 12.7681C12.7108 12.6002 12.6817 12.4258 12.635 12.245H7.105V14.6475H10.22C10.0333 15.3708 9.6775 15.9327 9.1525 16.3331C8.6275 16.7335 7.99167 16.9338 7.245 16.9338C6.335 16.9338 5.55333 16.5721 4.9 15.8488C4.24667 15.1254 3.92 14.2342 3.92 13.175C3.92 12.1158 4.24667 11.2246 4.9 10.5013C5.55333 9.77792 6.335 9.41625 7.245 9.41625C7.665 9.41625 8.06167 9.50021 8.435 9.66813C8.80833 9.83604 9.14667 10.0879 9.45 10.4237L11.165 8.6025C10.675 8.03417 10.0858 7.595 9.3975 7.285C8.70917 6.975 7.98 6.82 7.21 6.82C5.64667 6.82 4.31083 7.43354 3.2025 8.66062C2.09417 9.88771 1.54 11.3925 1.54 13.175C1.54 14.9575 2.09417 16.4623 3.2025 17.6894C4.31083 18.9165 5.64667 19.53 7.21 19.53ZM16.59 20.305L17.36 19.4912C17.0333 19.0521 16.7358 18.6258 16.4675 18.2125C16.1992 17.7992 15.9367 17.36 15.68 16.895L16.59 20.305ZM18.34 18.3287C18.9933 17.4762 19.4892 16.6625 19.8275 15.8875C20.1658 15.1125 20.3933 14.5054 20.51 14.0662H14.945L15.365 15.6937H16.765C16.9517 16.0812 17.1733 16.501 17.43 16.9531C17.6867 17.4052 17.99 17.8637 18.34 18.3287ZM15.4 29.45H25.2C25.62 29.45 25.9583 29.3015 26.215 29.0044C26.4717 28.7073 26.6 28.3392 26.6 27.9V7.75C26.6 7.285 26.4717 6.91042 26.215 6.62625C25.9583 6.34208 25.62 6.2 25.2 6.2H12.845L14.49 12.4775H17.255V10.85H18.69V12.4775H23.8V14.0662H22.015C21.7817 15.0479 21.4317 16.0037 20.965 16.9338C20.4983 17.8638 19.95 18.7292 19.32 19.53L23.135 23.6763L22.12 24.8L18.34 20.615L17.08 22.0487L18.2 26.35L15.4 29.45Z" fill="#1C1B1F"/>
</svg>
